<svg width="264" height="192" xmlns="http://www.w3.org/2000/svg" xmlns:xlink="http://www.w3.org/1999/xlink"><svg width="41.9" height="34" viewBox="-1 -1 41.9 34" x="212.2" y="145.2" xmlns="http://www.w3.org/2000/svg"><path fill="#ed008c" d="M20 17.7L6.4 31.3c-.9.9-2.5.9-3.4 0L.7 29c-.9-.9-.9-2.5 0-3.4l9.6-9.6L.7 6.4C-.2 5.5-.2 3.9.7 3L3 .7c.9-.9 2.5-.9 3.4 0L20 14.3c.9.9.9 2.5 0 3.4zm19.2-3.4L25.6.7c-.9-.9-2.5-.9-3.4 0L19.9 3c-.9.9-.9 2.5 0 3.4l9.6 9.6-9.6 9.6c-.9.9-.9 2.5 0 3.4l2.3 2.3c.9.9 2.5.9 3.4 0l13.6-13.6c.9-.9.9-2.5 0-3.4z"/></svg><svg width="53.2" height="53.2" viewBox="-1 -1 53.2 53.2" x="159" xmlns="http://www.w3.org/2000/svg"><path fill="#fff" d="M49.3 2.5L38.9.1c-1.1-.3-2.3.3-2.8 1.4l-4.8 11.2c-.4 1-.1 2.1.7 2.8l6.1 5c-3.6 7.7-9.9 14.1-17.7 17.7l-5-6.1c-.7-.8-1.8-1.1-2.8-.7L1.5 36.2C.4 36.7-.2 37.8.1 39l2.4 10.4c.3 1.1 1.2 1.9 2.3 1.9 25.6 0 46.4-20.7 46.4-46.4 0-1.2-.8-2.2-1.9-2.4z"/></svg><svg width="53.2" height="53.2" viewBox="-1 -1 53.2 53.2" y="97.8" xmlns="http://www.w3.org/2000/svg"><path fill="#ed008c" d="M49.3 2.5L38.9.1c-1.1-.3-2.3.3-2.8 1.4l-4.8 11.2c-.4 1-.1 2.1.7 2.8l6.1 5c-3.6 7.7-9.9 14.1-17.7 17.7l-5-6.1c-.7-.8-1.8-1.1-2.8-.7L1.5 36.2C.4 36.7-.2 37.8.1 39l2.4 10.4c.3 1.1 1.2 1.9 2.3 1.9 25.6 0 46.4-20.7 46.4-46.4 0-1.2-.8-2.2-1.9-2.4z"/></svg><svg width="28.4" height="53.2" viewBox="-1 -1 28.4 53.2" x="53.2" y="97.8" xmlns="http://www.w3.org/2000/svg"><path fill="#fff" d="M7.7 51.2V28.3H0v-9.1h7.7V12c0-7.8 4.8-12 11.7-12 3.3 0 6.2.3 7 .4v8.1h-4.8c-3.8 0-4.5 1.8-4.5 4.4v6.3h8.5l-1.2 9.1H17v22.9"/></svg><svg width="59.6" height="46.8" viewBox="-1 -1 59.6 46.8" y="51" xmlns="http://www.w3.org/2000/svg"><path fill="#ed008c" d="M48.8 28v14.3c0 1.3-1.1 2.4-2.4 2.4H34.8c-.7 0-1.2-.5-1.2-1.2V32.4c0-.7-.5-1.2-1.2-1.2h-7.2c-.7 0-1.2.5-1.2 1.2v11.2c0 .7-.5 1.2-1.2 1.2H11.2c-1.3 0-2.4-1.1-2.4-2.4V28c0-.4.2-.7.4-.9L28 11.6c.4-.4 1.1-.4 1.5 0l18.8 15.5c.3.2.5.6.5.9zm8.4-6.1L48.8 15V1.2c0-.7-.5-1.2-1.2-1.2H42c-.7 0-1.2.5-1.2 1.2v7.3l-9-7.4c-1.8-1.5-4.3-1.5-6.1 0L.4 21.9c-.5.4-.6 1.2-.2 1.7l2.5 3.1c.4.5 1.2.6 1.7.2L28 7.5c.4-.4 1.1-.4 1.5 0L53 26.9c.5.4 1.3.3 1.7-.2l2.5-3.1c.5-.5.5-1.2 0-1.7z"/></svg><svg width="51.6" height="51.6" viewBox="-1 -1 51.6 51.6" x="212.2" xmlns="http://www.w3.org/2000/svg"><path fill="#ed008c" d="M24.8 0C11.1 0 0 11.1 0 24.8s11.1 24.8 24.8 24.8 24.8-11.1 24.8-24.8S38.5 0 24.8 0zm0 44.8c-11 0-20-9-20-20s8.9-20 20-20 20 8.9 20 20-9 20-20 20zM31 34.4l-8.5-6.2c-.3-.2-.5-.6-.5-1V10.8c0-.7.5-1.2 1.2-1.2h3.2c.7 0 1.2.5 1.2 1.2V25l6.7 4.9c.5.4.7 1.1.3 1.7l-1.9 2.6c-.4.4-1.2.6-1.7.2z"/></svg><svg width="46.8" height="46.8" viewBox="-1 -1 46.8 46.8" x="212.2" y="98.4" xmlns="http://www.w3.org/2000/svg"><path fill="#fff" d="M22.4 10.9c-6.4 0-11.5 5.1-11.5 11.5S16 33.9 22.4 33.9s11.5-5.1 11.5-11.5-5.1-11.5-11.5-11.5zm0 19c-4.1 0-7.5-3.4-7.5-7.5s3.4-7.5 7.5-7.5 7.5 3.4 7.5 7.5-3.4 7.5-7.5 7.5zm14.7-19.5c0 1.5-1.2 2.7-2.7 2.7-1.5 0-2.7-1.2-2.7-2.7s1.2-2.7 2.7-2.7c1.5.1 2.7 1.3 2.7 2.7zm7.6 2.8c-.2-3.6-1-6.8-3.6-9.4C38.5 1.2 35.3.4 31.7.2 28 0 16.9 0 13.2.2c-3.6.2-6.8 1-9.4 3.6S.4 9.6.2 13.2C0 16.9 0 28 .2 31.7c.2 3.6 1 6.8 3.6 9.4s5.8 3.4 9.4 3.6c3.7.2 14.8.2 18.5 0 3.6-.2 6.8-1 9.4-3.6 2.6-2.6 3.4-5.8 3.6-9.4.2-3.8.2-14.8 0-18.5zm-4.8 22.4c-.8 2-2.3 3.5-4.3 4.3-3 1.2-10 .9-13.2.9s-10.3.2-13.2-.9c-2-.8-3.5-2.3-4.3-4.3-1.2-3-.9-10-.9-13.2s-.2-10.3.9-13.2c.8-2 2.3-3.5 4.3-4.3 3-1.1 10-.9 13.2-.9s10.3-.3 13.2.9c2 .8 3.5 2.3 4.3 4.3 1.2 2.9.9 9.9.9 13.2s.3 10.3-.9 13.2z"/></svg><svg width="46.8" height="46.8" viewBox="-1 -1 46.8 46.8" x="212.2" y="51.6" xmlns="http://www.w3.org/2000/svg"><path fill="#fff" d="M10 44.8H.7V14.9H10v29.9zm-4.6-34c-3 0-5.4-2.5-5.4-5.4S2.4 0 5.4 0s5.4 2.4 5.4 5.4-2.4 5.4-5.4 5.4zm39.4 34h-9.3V30.2c0-3.5-.1-7.9-4.8-7.9-4.8 0-5.6 3.8-5.6 7.7v14.8h-9.3V14.9h8.9V19h.1c1.2-2.4 4.3-4.8 8.8-4.8 9.4 0 11.1 6.2 11.1 14.2l.1 16.4z"/></svg><svg width="53.2" height="46.8" viewBox="-1 -1 53.2 46.8" x="59.6" y="51" xmlns="http://www.w3.org/2000/svg"><path fill="#ed008c" d="M46.2 3.1C40.7-1.6 32.6-.7 27.5 4.5l-2 2-2-2c-5-5.2-13.2-6-18.7-1.4-6.3 5.4-6.6 15-1 20.8l19.3 20c1.3 1.3 3.3 1.3 4.5 0l19.4-20c5.8-5.9 5.5-15.5-.8-20.8z"/></svg><svg width="53.2" height="40.4" viewBox="-1 -1 53.2 40.4" x="159" y="53.2" xmlns="http://www.w3.org/2000/svg"><path fill="#fff" d="M46.4 0H4.8C2.1 0 0 2.1 0 4.8v28.8c0 2.7 2.1 4.8 4.8 4.8h41.6c2.7 0 4.8-2.1 4.8-4.8V4.8c0-2.7-2.1-4.8-4.8-4.8zm0 4.8v4.1c-2.2 1.8-5.8 4.7-13.5 10.6-1.7 1.3-5 4.5-7.3 4.5s-5.7-3.1-7.3-4.5C10.6 13.5 7 10.7 4.8 8.9V4.8h41.6zM4.8 33.6V15c2.3 1.8 5.5 4.4 10.5 8.3 2.2 1.7 6 5.5 10.3 5.5 4.3 0 8.1-3.7 10.3-5.5 5-3.9 8.2-6.4 10.5-8.3v18.6H4.8z"/></svg><svg width="53.2" height="40.4" viewBox="-1 -1 53.2 40.4" x="159" y="93.6" xmlns="http://www.w3.org/2000/svg"><path fill="#ed008c" d="M46.4 0H4.8C2.1 0 0 2.1 0 4.8v28.8c0 2.7 2.1 4.8 4.8 4.8h41.6c2.7 0 4.8-2.1 4.8-4.8V4.8c0-2.7-2.1-4.8-4.8-4.8zm0 4.8v4.1c-2.2 1.8-5.8 4.7-13.5 10.6-1.7 1.3-5 4.5-7.3 4.5s-5.7-3.1-7.3-4.5C10.6 13.5 7 10.7 4.8 8.9V4.8h41.6zM4.8 33.6V15c2.3 1.8 5.5 4.4 10.5 8.3 2.2 1.7 6 5.5 10.3 5.5 4.3 0 8.1-3.7 10.3-5.5 5-3.9 8.2-6.4 10.5-8.3v18.6H4.8z"/></svg><svg width="53.2" height="40.4" viewBox="-1 -1 53.2 40.4" y="151" xmlns="http://www.w3.org/2000/svg"><path fill="#fff" d="M50.2 12.7c.4-.3 1 0 1 .5v20.5c0 2.7-2.2 4.8-4.8 4.8H4.8c-2.7 0-4.8-2.1-4.8-4.8V13.2c0-.5.6-.8 1-.5 2.2 1.7 5.2 3.9 15.4 11.4 2.1 1.5 5.7 4.8 9.2 4.8 3.6 0 7.2-3.3 9.2-4.8C45 16.6 48 14.4 50.2 12.7zM25.6 25.6c2.3 0 5.7-2.9 7.3-4.1C46.2 11.8 47.2 11 50.3 8.6c.6-.4.9-1.1.9-1.9V4.8C51.2 2.2 49 0 46.4 0H4.8C2.2 0 0 2.1 0 4.8v1.9c0 .7.3 1.4.9 1.9C4 11 5 11.8 18.3 21.5c1.6 1.2 5 4.1 7.3 4.1z"/></svg><svg width="53.2" height="43.6" viewBox="-1 -1 53.2 43.6" x="81.6" y="97.8" xmlns="http://www.w3.org/2000/svg"><path fill="#fff" d="M45.9 10.4v1.4c0 13.9-10.6 29.9-29.9 29.9C10.1 41.7 4.5 40-.1 37h2.6c4.9 0 9.4-1.7 13-4.5-4.6-.1-8.5-3.1-9.8-7.3.6.1 1.3.2 2 .2.9 0 1.9-.1 2.8-.4-4.8-1-8.4-5.2-8.4-10.3v-.1c1.4.8 3 1.3 4.7 1.3-2.8-1.8-4.7-5-4.7-8.7 0-1.9.5-3.7 1.4-5.3 5.2 6.4 12.9 10.5 21.6 11-.1-.8-.1-1.6-.1-2.4C25 4.7 29.6 0 35.4 0c3 0 5.8 1.3 7.7 3.3 2.4-.5 4.6-1.3 6.7-2.5-.8 2.4-2.4 4.5-4.6 5.8 2.1-.2 4.2-.8 6-1.6-1.4 2-3.2 3.9-5.3 5.4z"/></svg><svg width="159" height="17" viewBox="-1 -1 159 17" y="17" xmlns="http://www.w3.org/2000/svg"><path fill="none" stroke="#24a7b9" stroke-width="3" stroke-miterlimit="10" d="M1 13L13 3l10 10L33 3l10 10L53 3l10 10L73 3l10 10L93 3l10 10 10-10 10 10 10-10 10 10 12-10"/></svg><svg width="159" height="17" viewBox="-1 -1 159 17" xmlns="http://www.w3.org/2000/svg"><path fill="none" stroke="#ed008c" stroke-width="3" stroke-miterlimit="10" d="M1 13L13 3l10 10L33 3l10 10L53 3l10 10L73 3l10 10L93 3l10 10 10-10 10 10 10-10 10 10 12-10"/></svg><svg width="79" height="17" viewBox="-1 -1 79 17" y="34" xmlns="http://www.w3.org/2000/svg"><path fill="none" stroke="#ed008c" stroke-width="3" stroke-miterlimit="10" d="M1 13L13 3l10 10L33 3l10 10L53 3l10 10L75 3"/></svg></svg>